<?xml version="1.0" encoding="UTF-8"?>
<svg width="209px" height="209px" viewBox="0 0 209 209" version="1.1" xmlns="http://www.w3.org/2000/svg"
     xmlns:xlink="http://www.w3.org/1999/xlink">
  <!-- Generator: Sketch 48.2 (47327) - http://www.bohemiancoding.com/sketch -->
  <title>pin</title>
  <desc>Created with Sketch.</desc>
  <defs>
    <circle id="path-1" cx="104.5" cy="104.5" r="104.5"></circle>
  </defs>
  <g id="Page-2" stroke="none" stroke-width="1" fill="none" fill-rule="evenodd">
    <g id="pin">
      <mask id="mask-2" fill="white">
        <use xlink:href="#path-1"></use>
      </mask>
      <use id="Oval" fill="#676A8B" xlink:href="#path-1"></use>
      <polygon id="Shadow" fill="#324D71" mask="url(#mask-2)"
               points="132.610728 52 316.378201 243.185374 286.461971 347.515669 104.529007 157.543298 104.529007 58.8965523"></polygon>
      <path
        d="M100.689286,155.205011 L91.0807919,109.353997 C90.6762238,107.423676 91.8305969,105.512692 93.6591175,105.08581 C95.4878373,104.657037 97.2978417,105.877149 97.7022108,107.807471 C105.43659,107.996425 102.560015,107.996425 110.297978,107.807471 C110.702547,105.876939 112.513945,104.658718 114.341072,105.08581 C116.169592,105.512692 117.323766,107.423676 116.919198,109.353997 L107.310704,155.205011 C106.530836,158.927353 101.471345,158.93597 100.689286,155.205011 Z"
        id="Shape" fill="#FFD76E" fill-rule="nonzero" mask="url(#mask-2)"></path>
      <path
        d="M115.136502,105.085312 C113.168853,104.658211 111.218143,105.876458 110.78246,107.807029 C106.617314,107.901614 105.308121,107.948696 104,107.948696 L104,158 C105.572918,157.999369 107.145408,157.066768 107.565439,155.205348 L117.912909,109.353378 C118.348806,107.423227 117.105866,105.512203 115.136502,105.085312 Z"
        id="Shape" fill="#F5AA2C" fill-rule="nonzero" mask="url(#mask-2)"></path>
      <path
        d="M122.436405,99 L86.5635949,99 C84.595677,99 83,97.4433511 83,95.5231099 L83,67.4768901 C83,65.556853 84.5954677,64 86.5635949,64 L122.436405,64 C124.404323,64 126,65.5566489 126,67.4768901 L126,95.5231099 C126,97.4433511 124.404323,99 122.436405,99 Z"
        id="Shape" fill="#EB9A2A" fill-rule="nonzero" mask="url(#mask-2)"></path>
      <path
        d="M121.538415,64 L104,64 L104,99 L121.538415,99 C123.45,99 125,97.4433511 125,95.5231099 L125,67.4768901 C125,65.5566489 123.45,64 121.538415,64 Z"
        id="Shape" fill="#D98E27" fill-rule="nonzero" mask="url(#mask-2)"></path>
      <path
        d="M133.456159,106.624314 L126.026542,94.8542463 L126.026542,91 C124.983324,91 84.403058,91 83.2096188,91 L83.2096188,94.4794047 L75.543522,106.62452 C74.0692246,108.960008 75.7677086,112 78.552539,112 L130.447351,112 C133.228639,111.999794 134.932332,108.962483 133.456159,106.624314 Z"
        id="Shape" fill="#F5AA2C" fill-rule="nonzero" mask="url(#mask-2)"></path>
      <path
        d="M132.46538,106.624621 L125.161728,94.854322 L125.161728,91 C124.646197,91 114.305075,91 104,91 L104,112 L129.507584,112 C132.241717,112.000206 133.916525,108.96263 132.46538,106.624621 Z"
        id="Shape" fill="#EB9A2A" fill-rule="nonzero" mask="url(#mask-2)"></path>
      <path
        d="M130.447497,51 L78.5527887,51 C75.7710892,51 74.0678165,54.0876987 75.5437778,56.4642872 L83.2098591,68.8100491 L83.2098591,71 C84.4049628,71 124.985356,71 126.026697,71 L126.026697,68.4290148 L133.456299,56.4644969 C134.93101,54.0904249 133.232113,51 130.447497,51 Z"
        id="Shape" fill="#F5AA2C" fill-rule="nonzero" mask="url(#mask-2)"></path>
      <path
        d="M129.507578,51 L104,51 L104,71 C114.305565,71 124.647383,71 125.161893,71 L125.161893,68.4290148 L132.465602,56.4644969 C133.91512,54.0904249 132.245215,51 129.507578,51 Z"
        id="Shape" fill="#EB9A2A" fill-rule="nonzero" mask="url(#mask-2)"></path>
      <polygon id="overlay" fill="#1A3459" style="mix-blend-mode: color;" mask="url(#mask-2)"
               points="-37 -62 356 -62 356 289 -37 289"></polygon>
    </g>
  </g>
</svg>
